<svg width="81" height="81" viewBox="0 0 81 81" fill="none" xmlns="http://www.w3.org/2000/svg">
<path d="M27.6519 52.142L27.6519 30.3441C27.6519 30.0574 27.7658 29.7824 27.9685 29.5797C28.1713 29.377 28.4463 29.2631 28.733 29.2631L62.5762 29.2631C62.6151 29.2631 62.6541 29.2631 62.693 29.2631C68.8033 29.9258 74.1157 33.6425 78.933 40.6241C79.0573 40.8046 79.1239 41.0185 79.1239 41.2377C79.1239 41.4568 79.0573 41.6707 78.933 41.8512C74.1168 48.8425 68.8033 52.5539 62.6897 53.2112C62.6517 53.2155 62.6134 53.2177 62.5751 53.2177L28.733 53.2177C28.4472 53.2177 28.173 53.1045 27.9705 52.9029C27.7679 52.7014 27.6533 52.4278 27.6519 52.142ZM29.8141 31.4252L29.8141 51.0609L62.5178 51.0609C67.8422 50.4739 72.3719 47.3474 76.7233 41.2479C72.3697 35.1517 67.84 32.0252 62.5168 31.4295L29.8141 31.4252Z" fill="white"/>
<path d="M25.4183 24.7744C25.4182 24.6252 25.449 24.4775 25.5087 24.3408C25.5684 24.204 25.6558 24.0811 25.7654 23.9798L27.3524 22.5182C28.9582 21.0187 30.9622 20.0139 33.1244 19.6241C35.2866 19.2343 37.5154 19.476 39.5437 20.3204L39.6735 20.3755C43.9777 22.2255 47.4025 25.6646 49.2345 29.9766C49.2936 30.1399 49.3124 30.315 49.2895 30.4871C49.2665 30.6593 49.2024 30.8233 49.1026 30.9654C49.0028 31.1075 48.8702 31.2235 48.7161 31.3036C48.562 31.3836 48.3909 31.4253 48.2172 31.4252L33.0075 31.4252C32.8241 31.4251 32.6437 31.3783 32.4833 31.2892C32.3229 31.2001 32.1878 31.0717 32.0908 30.916C30.6059 28.6779 28.5267 26.8978 26.0864 25.7755C25.919 25.7056 25.7718 25.5948 25.6584 25.4531C25.545 25.3114 25.4692 25.1434 25.4378 24.9647C25.4259 24.9019 25.4194 24.8383 25.4183 24.7744ZM39.1189 21.3149L38.6951 22.3085C37.0498 21.6271 35.243 21.4345 33.4911 21.7538C31.7392 22.073 30.1164 22.8906 28.8173 24.1085L28.3708 24.5193C30.4342 25.7035 32.2155 27.3221 33.5913 29.2631L46.4864 29.2631C44.7307 26.2007 42.041 23.7806 38.8108 22.3571L39.1189 21.3149Z" fill="white"/>
<path d="M25.4183 57.7215C25.4183 57.6577 25.4237 57.594 25.4346 57.5312C25.4659 57.3525 25.5418 57.1845 25.6552 57.0428C25.7685 56.9011 25.9157 56.7902 26.0832 56.7204C28.5234 55.5981 30.6026 53.818 32.0875 51.5798C32.1846 51.4242 32.3196 51.2957 32.48 51.2066C32.6404 51.1176 32.8208 51.0708 33.0043 51.0706L48.2172 51.0706C48.3909 51.0705 48.562 51.1123 48.7161 51.1923C48.8702 51.2724 49.0028 51.3883 49.1026 51.5304C49.2024 51.6726 49.2665 51.8366 49.2895 52.0087C49.3124 52.1809 49.2936 52.356 49.2345 52.5193C47.4025 56.8313 43.9777 60.2703 39.6735 62.1204L39.5437 62.1755C37.5154 63.0198 35.2866 63.2616 33.1244 62.8718C30.9622 62.482 28.9582 61.4772 27.3524 59.9777L25.7654 58.5161C25.6558 58.4147 25.5684 58.2918 25.5087 58.1551C25.449 58.0183 25.4182 57.8707 25.4183 57.7215ZM33.5913 53.2328C32.2155 55.1737 30.4342 56.7924 28.3708 57.9766L28.8173 58.3874C30.1161 59.6047 31.7383 60.4218 33.4896 60.7411C35.2408 61.0603 37.047 60.8681 38.6918 60.1874L39.2324 61.129L38.8 60.1388C42.0302 58.7152 44.7199 56.2952 46.4756 53.2328L33.5913 53.2328Z" fill="white"/>
<path d="M57.3482 41.248C57.348 40.1218 57.6818 39.0208 58.3073 38.0843C58.9329 37.1478 59.8221 36.4178 60.8625 35.9866C61.9029 35.5555 63.0479 35.4426 64.1525 35.6622C65.2571 35.8818 66.2718 36.424 67.0682 37.2203C67.8646 38.0165 68.407 39.0311 68.6268 40.1357C68.8466 41.2403 68.7339 42.3852 68.303 43.4257C67.8721 44.4662 67.1422 45.3556 66.2058 45.9813C65.2694 46.607 64.1685 46.941 63.0423 46.941C61.5328 46.9393 60.0857 46.339 59.0182 45.2717C57.9508 44.2045 57.3502 42.7575 57.3482 41.248ZM66.5731 41.248C66.5733 40.5494 66.3663 39.8664 65.9783 39.2854C65.5903 38.7044 65.0387 38.2516 64.3933 37.9841C63.7479 37.7167 63.0376 37.6466 62.3524 37.7829C61.6672 37.9191 61.0378 38.2555 60.5438 38.7495C60.0498 39.2435 59.7134 39.8729 59.5771 40.5582C59.4409 41.2434 59.5109 41.9536 59.7784 42.599C60.0458 43.2444 60.4987 43.796 61.0797 44.1841C61.6606 44.5721 62.3436 44.779 63.0423 44.7788C63.9783 44.7777 64.8758 44.4053 65.5377 43.7434C66.1996 43.0815 66.5719 42.1841 66.5731 41.248Z" fill="white"/>
<path d="M23.1827 51.0231L23.1827 31.4631C23.1827 31.1763 23.2966 30.9014 23.4994 30.6986C23.7021 30.4959 23.9771 30.382 24.2638 30.382L28.733 30.382C29.0197 30.382 29.2947 30.4959 29.4974 30.6986C29.7002 30.9014 29.8141 31.1763 29.8141 31.4631L29.8141 51.0231C29.8141 51.3098 29.7002 51.5848 29.4974 51.7875C29.2947 51.9903 29.0197 52.1042 28.733 52.1042L24.2638 52.1042C23.9771 52.1042 23.7021 51.9903 23.4994 51.7875C23.2966 51.5848 23.1827 51.3098 23.1827 51.0231ZM25.3449 32.5442L25.3449 49.942L27.6519 49.942L27.6519 32.5442L25.3449 32.5442Z" fill="white"/>
<path d="M3.44862 41.3204C3.48189 40.6042 3.72816 39.9141 4.15591 39.3387C4.58367 38.7632 5.17343 38.3285 5.84971 38.0902C7.97694 37.1349 9.97066 35.9065 11.7805 34.4361C14.9611 32.0113 17.4735 30.0956 24.6248 32.6361C24.8353 32.7107 25.0176 32.8487 25.1465 33.031C25.2754 33.2134 25.3447 33.4312 25.3448 33.6545L25.3448 48.8156C25.3449 49.0391 25.2758 49.2571 25.1468 49.4397C25.0179 49.6223 24.8355 49.7604 24.6248 49.835C22.7495 50.5701 20.7641 50.9848 18.7513 51.0621C15.7005 51.0621 13.8735 49.6956 11.7578 48.114C9.94863 46.6736 7.96283 45.4704 5.84863 44.5334C5.17459 44.299 4.58598 43.8685 4.15835 43.2971C3.73072 42.7258 3.48357 42.0397 3.44862 41.3269L3.44862 41.3204ZM23.1827 34.4275C17.7135 32.6318 16.0367 33.9096 13.0908 36.1572C11.1425 37.7327 8.99854 39.0495 6.71241 40.075C6.02268 40.3745 5.61079 40.8415 5.61079 41.3226C5.61079 41.7983 6.02052 42.2567 6.70268 42.5507C8.97287 43.5556 11.1066 44.8441 13.0529 46.3853C15.08 47.8988 16.4194 48.9032 18.7513 48.9032C20.2643 48.8485 21.7595 48.5592 23.1838 48.0458L23.1827 34.4275Z" fill="white"/>
<path d="M13.6746 41.2826C13.6931 40.8142 13.8497 40.3618 14.1245 39.9821C14.3994 39.6024 14.7803 39.3124 15.2194 39.1485C16.2661 38.678 17.2472 38.0737 18.1384 37.3507C19.7438 36.1312 21.1297 35.0804 24.5881 36.1518C24.8077 36.2208 24.9996 36.3582 25.1357 36.5439C25.2718 36.7296 25.3451 36.9539 25.3448 37.1842L25.3448 45.2923C25.3449 45.5224 25.2715 45.7464 25.1354 45.9319C24.9993 46.1174 24.8076 46.2546 24.5881 46.3236C23.7597 46.6042 22.8938 46.7588 22.0194 46.782C20.5712 46.7282 19.1902 46.1567 18.1275 45.1712C17.237 44.4635 16.2601 43.8718 15.2205 43.4101C14.7822 43.2481 14.4016 42.9601 14.1265 42.5823C13.8514 42.2045 13.6942 41.7538 13.6746 41.2869L13.6746 41.2826ZM23.1827 38.0047C21.3859 37.5918 20.7232 38.0955 19.4443 39.0674C18.4168 39.8956 17.2867 40.5878 16.0821 41.1269C15.9859 41.1608 15.9007 41.2202 15.8357 41.2988C15.8529 41.2826 15.92 41.3539 16.0746 41.4199C17.2729 41.9484 18.3991 42.6273 19.4259 43.4404C20.1205 44.1332 21.0418 44.5521 22.0205 44.6199C22.4138 44.6131 22.8052 44.562 23.187 44.4674L23.1827 38.0047Z" fill="white"/>
<path d="M33.6693 41.248C33.6693 40.9613 33.7832 40.6863 33.9859 40.4836C34.1887 40.2808 34.4637 40.1669 34.7504 40.1669L41.0877 40.1669C41.3744 40.1669 41.6494 40.2808 41.8521 40.4836C42.0549 40.6863 42.1688 40.9613 42.1688 41.248C42.1688 41.5348 42.0549 41.8097 41.8521 42.0125C41.6494 42.2152 41.3744 42.3291 41.0877 42.3291L34.7504 42.3291C34.4637 42.3291 34.1887 42.2152 33.9859 42.0125C33.7832 41.8097 33.6693 41.5348 33.6693 41.248Z" fill="white"/>
<path d="M33.696 36.1667C33.696 35.88 33.8099 35.605 34.0127 35.4023C34.2154 35.1995 34.4904 35.0856 34.7771 35.0856L37.5641 35.0856C37.8508 35.0856 38.1258 35.1995 38.3286 35.4023C38.5313 35.605 38.6452 35.88 38.6452 36.1667C38.6452 36.4534 38.5313 36.7284 38.3286 36.9312C38.1258 37.1339 37.8508 37.2478 37.5641 37.2478L34.7771 37.2478C34.4904 37.2478 34.2154 37.1339 34.0127 36.9312C33.8099 36.7284 33.696 36.4534 33.696 36.1667Z" fill="white"/>
<path d="M33.696 46.316C33.696 46.0293 33.8099 45.7543 34.0127 45.5516C34.2154 45.3488 34.4904 45.2349 34.7771 45.2349L37.5641 45.2349C37.8508 45.2349 38.1258 45.3488 38.3286 45.5516C38.5313 45.7543 38.6452 46.0293 38.6452 46.316C38.6452 46.6027 38.5313 46.8777 38.3286 47.0805C38.1258 47.2832 37.8508 47.3971 37.5641 47.3971L34.7771 47.3971C34.4904 47.3971 34.2154 47.2832 34.0127 47.0805C33.8099 46.8777 33.696 46.6027 33.696 46.316Z" fill="white"/>
</svg>
