<svg width="17" height="16" viewBox="0 0 17 16" fill="none" xmlns="http://www.w3.org/2000/svg">
<path d="M8.36356 3.80136C6.14676 3.80136 4.3577 5.59042 4.3577 7.80722C4.3577 10.024 6.14676 11.8131 8.36356 11.8131C10.5804 11.8131 12.3694 10.024 12.3694 7.80722C12.3694 5.59042 10.5804 3.80136 8.36356 3.80136ZM8.36356 10.4107C6.92996 10.4107 5.76004 9.24082 5.76004 7.80722C5.76004 6.37363 6.92996 5.20371 8.36356 5.20371C9.79715 5.20371 10.9671 6.37363 10.9671 7.80722C10.9671 9.24082 9.79715 10.4107 8.36356 10.4107ZM12.5335 2.70371C12.0159 2.70371 11.5979 3.12167 11.5979 3.63925C11.5979 4.15683 12.0159 4.5748 12.5335 4.5748C13.0511 4.5748 13.469 4.15878 13.469 3.63925C13.4692 3.51635 13.4451 3.39463 13.3981 3.28105C13.3512 3.16748 13.2823 3.06428 13.1954 2.97738C13.1085 2.89047 13.0053 2.82157 12.8917 2.77461C12.7781 2.72765 12.6564 2.70355 12.5335 2.70371ZM16.1722 7.80722C16.1722 6.7291 16.1819 5.66074 16.1214 4.58457C16.0608 3.33457 15.7757 2.22519 14.8616 1.31113C13.9456 0.395112 12.8382 0.111909 11.5882 0.0513622C10.51 -0.00918471 9.44168 0.000580946 8.36551 0.000580946C7.28738 0.000580946 6.21903 -0.00918471 5.14285 0.0513622C3.89285 0.111909 2.78348 0.397065 1.86942 1.31113C0.953401 2.22714 0.670198 3.33457 0.609651 4.58457C0.549104 5.66269 0.55887 6.73105 0.55887 7.80722C0.55887 8.88339 0.549104 9.95371 0.609651 11.0299C0.670198 12.2799 0.955354 13.3893 1.86942 14.3033C2.78543 15.2193 3.89285 15.5025 5.14285 15.5631C6.22098 15.6236 7.28934 15.6139 8.36551 15.6139C9.44363 15.6139 10.512 15.6236 11.5882 15.5631C12.8382 15.5025 13.9475 15.2174 14.8616 14.3033C15.7776 13.3873 16.0608 12.2799 16.1214 11.0299C16.1839 9.95371 16.1722 8.88535 16.1722 7.80722ZM14.4534 12.4127C14.3108 12.7682 14.1389 13.0338 13.8636 13.3072C13.5882 13.5826 13.3245 13.7545 12.969 13.8971C11.9417 14.3053 9.50223 14.2135 8.36356 14.2135C7.22489 14.2135 4.78348 14.3053 3.75614 13.899C3.40067 13.7564 3.13504 13.5846 2.8616 13.3092C2.58621 13.0338 2.41434 12.7701 2.27176 12.4146C1.86551 11.3853 1.95731 8.94589 1.95731 7.80722C1.95731 6.66855 1.86551 4.22714 2.27176 3.1998C2.41434 2.84433 2.58621 2.57871 2.8616 2.30527C3.13699 2.03183 3.40067 1.858 3.75614 1.71542C4.78348 1.30917 7.22489 1.40097 8.36356 1.40097C9.50223 1.40097 11.9436 1.30917 12.971 1.71542C13.3264 1.858 13.5921 2.02988 13.8655 2.30527C14.1409 2.58066 14.3128 2.84433 14.4554 3.1998C14.8616 4.22714 14.7698 6.66855 14.7698 7.80722C14.7698 8.94589 14.8616 11.3853 14.4534 12.4127Z" fill="white"/>
</svg>
