<svg width="15" height="14" viewBox="0 0 15 14" fill="none" xmlns="http://www.w3.org/2000/svg">
<path d="M3.73649 13.999V4.55325H0.73547V13.999H3.73649ZM2.23637 3.26282C3.28288 3.26282 3.93428 2.53749 3.93428 1.63107C3.91478 0.704217 3.28292 -0.000976562 2.25623 -0.000976562C1.2297 -0.000976562 0.558411 0.704231 0.558411 1.63107C0.558411 2.53753 1.20965 3.26282 2.21678 3.26282H2.23637ZM5.39755 13.999H8.39857V8.72405C8.39857 8.44174 8.41807 8.15972 8.49731 7.95791C8.71427 7.39387 9.20805 6.80967 10.0371 6.80967C11.123 6.80967 11.5574 7.67588 11.5574 8.94568V13.999H14.5583V8.58284C14.5583 5.68147 13.0777 4.33149 11.1032 4.33149C9.48431 4.33149 8.77349 5.2782 8.3786 5.923H8.39863V4.55306H5.39761C5.437 5.4394 5.39755 13.999 5.39755 13.999Z" fill="white"/>
</svg>
