<svg width="23" height="16" viewBox="0 0 23 16" fill="none" xmlns="http://www.w3.org/2000/svg">
<path d="M22.5583 1.87201C21.7411 2.17973 20.8518 2.4012 19.9357 2.48746C20.8868 1.99425 21.599 1.21506 21.9387 0.296079C21.0463 0.759506 20.0686 1.08447 19.0491 1.25655C18.623 0.858905 18.1076 0.542119 17.5351 0.325936C16.9626 0.109754 16.3452 -0.0011931 15.7215 9.67564e-06C13.1977 9.67564e-06 11.1681 1.78575 11.1681 3.97713C11.1681 4.28485 11.2108 4.59258 11.2802 4.88865C7.50129 4.71613 4.13096 3.14021 1.8903 0.72736C1.48203 1.33609 1.26808 2.02919 1.27072 2.73457C1.27072 4.11467 2.07458 5.33158 3.30039 6.04728C2.578 6.02244 1.87252 5.84912 1.24134 5.5414V5.59035C1.24134 7.52296 2.80633 9.12453 4.89209 9.49287C4.50046 9.58167 4.0976 9.6271 3.69298 9.62808C3.39654 9.62808 3.11612 9.60244 2.83303 9.56747C3.40989 11.1434 5.08972 12.288 7.09001 12.3253C5.52503 13.3954 3.56479 14.0248 1.4363 14.0248C1.0544 14.0248 0.701874 14.0132 0.335999 13.9759C2.35499 15.1065 4.75055 15.7593 7.33037 15.7593C15.7055 15.7593 20.2883 9.70268 20.2883 4.44571C20.2883 4.2732 20.2883 4.10068 20.2749 3.92817C21.1616 3.36168 21.9387 2.65997 22.5583 1.87201Z" fill="white"/>
</svg>
